<?xml version="1.0" encoding="UTF-8"?>
<svg width="400" height="200" viewBox="0 0 400 200" fill="none" xmlns="http://www.w3.org/2000/svg">
  <rect width="400" height="200" fill="#F0F0F0"/>
  <text x="200" y="30" font-family="Arial" font-size="16" text-anchor="middle" fill="#333333">高级图表预览</text>
  
  <!-- 网格线 -->
  <line x1="50" y1="50" x2="350" y2="50" stroke="#DDDDDD" stroke-width="1"/>
  <line x1="50" y1="80" x2="350" y2="80" stroke="#DDDDDD" stroke-width="1"/>
  <line x1="50" y1="110" x2="350" y2="110" stroke="#DDDDDD" stroke-width="1"/>
  <line x1="50" y1="140" x2="350" y2="140" stroke="#DDDDDD" stroke-width="1"/>
  <line x1="50" y1="170" x2="350" y2="170" stroke="#DDDDDD" stroke-width="1"/>
  
  <line x1="50" y1="50" x2="50" y2="170" stroke="#DDDDDD" stroke-width="1"/>
  <line x1="100" y1="50" x2="100" y2="170" stroke="#DDDDDD" stroke-width="1"/>
  <line x1="150" y1="50" x2="150" y2="170" stroke="#DDDDDD" stroke-width="1"/>
  <line x1="200" y1="50" x2="200" y2="170" stroke="#DDDDDD" stroke-width="1"/>
  <line x1="250" y1="50" x2="250" y2="170" stroke="#DDDDDD" stroke-width="1"/>
  <line x1="300" y1="50" x2="300" y2="170" stroke="#DDDDDD" stroke-width="1"/>
  <line x1="350" y1="50" x2="350" y2="170" stroke="#DDDDDD" stroke-width="1"/>
  
  <!-- K线图 -->
  <!-- 上涨K线 -->
  <line x1="75" y1="90" x2="75" y2="130" stroke="#E74C3C" stroke-width="1"/>
  <rect x="70" y="90" width="10" height="20" fill="#E74C3C"/>
  
  <line x1="125" y1="80" x2="125" y2="120" stroke="#E74C3C" stroke-width="1"/>
  <rect x="120" y="80" width="10" height="25" fill="#E74C3C"/>
  
  <line x1="225" y1="70" x2="225" y2="110" stroke="#E74C3C" stroke-width="1"/>
  <rect x="220" y="70" width="10" height="30" fill="#E74C3C"/>
  
  <line x1="275" y1="60" x2="275" y2="100" stroke="#E74C3C" stroke-width="1"/>
  <rect x="270" y="60" width="10" height="25" fill="#E74C3C"/>
  
  <line x1="325" y1="65" x2="325" y2="105" stroke="#E74C3C" stroke-width="1"/>
  <rect x="320" y="65" width="10" height="20" fill="#E74C3C"/>
  
  <!-- 下跌K线 -->
  <line x1="175" y1="90" x2="175" y2="130" stroke="#2ECC71" stroke-width="1"/>
  <rect x="170" y="110" width="10" height="20" fill="#2ECC71"/>
  
  <!-- 均线 -->
  <path d="M 50,100 C 70,95 90,90 110,85 C 130,80 150,85 170,90 C 190,95 210,90 230,80 C 250,70 270,65 290,70 C 310,75 330,70 350,65" stroke="#3498DB" stroke-width="2" fill="none"/>
  
  <!-- 成交量 -->
  <rect x="65" y="180" width="20" height="10" fill="#E74C3C"/>
  <rect x="115" y="180" width="20" height="15" fill="#E74C3C"/>
  <rect x="165" y="180" width="20" height="5" fill="#2ECC71"/>
  <rect x="215" y="180" width="20" height="12" fill="#E74C3C"/>
  <rect x="265" y="180" width="20" height="8" fill="#E74C3C"/>
  <rect x="315" y="180" width="20" height="10" fill="#E74C3C"/>
</svg>
