<?xml version="1.0" encoding="UTF-8"?>
<svg width="400" height="200" viewBox="0 0 400 200" fill="none" xmlns="http://www.w3.org/2000/svg">
  <rect width="400" height="200" fill="#F0F0F0"/>
  <text x="200" y="100" font-family="Arial" font-size="24" text-anchor="middle" fill="#333333">KDJ 指标预览图</text>
  
  <!-- KDJ 线条示例 -->
  <path d="M 50,150 C 70,120 90,130 110,100 C 130,80 150,90 170,70 C 190,60 210,80 230,90 C 250,100 270,80 290,70 C 310,90 330,110 350,100" stroke="#FF6B6B" stroke-width="2" fill="none"/>
  <path d="M 50,140 C 70,130 90,120 110,110 C 130,100 150,90 170,100 C 190,110 210,100 230,110 C 250,120 270,110 290,100 C 310,90 330,100 350,110" stroke="#4ECDC4" stroke-width="2" fill="none"/>
  <path d="M 50,130 C 70,140 90,130 110,140 C 130,150 150,140 170,130 C 190,120 210,130 230,140 C 250,130 270,140 290,150 C 310,140 330,130 350,120" stroke="#FFD166" stroke-width="2" fill="none"/>
  
  <!-- 图例 -->
  <circle cx="50" cy="180" r="4" fill="#FF6B6B"/>
  <text x="60" y="185" font-family="Arial" font-size="12" fill="#333333">K线</text>
  
  <circle cx="100" cy="180" r="4" fill="#4ECDC4"/>
  <text x="110" y="185" font-family="Arial" font-size="12" fill="#333333">D线</text>
  
  <circle cx="150" cy="180" r="4" fill="#FFD166"/>
  <text x="160" y="185" font-family="Arial" font-size="12" fill="#333333">J线</text>
</svg>
