<?xml version="1.0" encoding="UTF-8" standalone="no"?>
<svg width="300" height="300" viewBox="0 0 300 300" xmlns="http://www.w3.org/2000/svg">
  <!-- 背景 -->
  <rect width="300" height="300" fill="#ffffff"/>
  
  <!-- 微信支付标题 -->
  <text x="150" y="40" font-family="Arial, sans-serif" font-size="24" font-weight="bold" text-anchor="middle" fill="#07C160">微信支付</text>
  
  <!-- 二维码边框 -->
  <rect x="50" y="60" width="200" height="200" fill="#ffffff" stroke="#07C160" stroke-width="2"/>
  
  <!-- 简化的二维码图案 -->
  <g fill="#000000">
    <!-- 定位点 - 左上 -->
    <rect x="70" y="80" width="40" height="40"/>
    <rect x="80" y="90" width="20" height="20" fill="#ffffff"/>
    
    <!-- 定位点 - 右上 -->
    <rect x="190" y="80" width="40" height="40"/>
    <rect x="200" y="90" width="20" height="20" fill="#ffffff"/>
    
    <!-- 定位点 - 左下 -->
    <rect x="70" y="200" width="40" height="40"/>
    <rect x="80" y="210" width="20" height="20" fill="#ffffff"/>
    
    <!-- 二维码数据点 - 简化表示 -->
    <rect x="130" y="80" width="10" height="10"/>
    <rect x="150" y="80" width="10" height="10"/>
    <rect x="170" y="90" width="10" height="10"/>
    <rect x="90" y="110" width="10" height="10"/>
    <rect x="110" y="110" width="10" height="10"/>
    <rect x="150" y="110" width="10" height="10"/>
    <rect x="170" y="110" width="10" height="10"/>
    <rect x="90" y="130" width="10" height="10"/>
    <rect x="130" y="130" width="10" height="10"/>
    <rect x="150" y="130" width="10" height="10"/>
    <rect x="190" y="130" width="10" height="10"/>
    <rect x="110" y="150" width="10" height="10"/>
    <rect x="130" y="150" width="10" height="10"/>
    <rect x="170" y="150" width="10" height="10"/>
    <rect x="190" y="150" width="10" height="10"/>
    <rect x="90" y="170" width="10" height="10"/>
    <rect x="130" y="170" width="10" height="10"/>
    <rect x="150" y="170" width="10" height="10"/>
    <rect x="170" y="170" width="10" height="10"/>
    <rect x="110" y="190" width="10" height="10"/>
    <rect x="130" y="190" width="10" height="10"/>
    <rect x="150" y="190" width="10" height="10"/>
    <rect x="170" y="190" width="10" height="10"/>
    <rect x="190" y="190" width="10" height="10"/>
    <rect x="130" y="210" width="10" height="10"/>
    <rect x="150" y="210" width="10" height="10"/>
    <rect x="170" y="210" width="10" height="10"/>
    <rect x="190" y="210" width="10" height="10"/>
  </g>
  
  <!-- 微信图标 -->
  <circle cx="150" y="150" r="20" fill="#07C160"/>
  <text x="150" y="155" font-family="Arial, sans-serif" font-size="12" font-weight="bold" text-anchor="middle" fill="#ffffff">微信</text>
  
  <!-- 底部说明文字 -->
  <text x="150" y="280" font-family="Arial, sans-serif" font-size="14" text-anchor="middle" fill="#333333">扫码支付会员升级费用</text>
</svg>
